999
dxflib 3.26.4.0
  0
SECTION
  2
HEADER
  9
$ACADVER
  1
AC1015
  9
$HANDSEED
  5
FFFF
  9
$DIMADEC
 70
0
  9
$DIMASZ
 40
0.18
  9
$DIMATFIT
 70
0
  9
$DIMAUNIT
 70
0
  9
$DIMAZIN
 70
0
  9
$DIMBLK
  1
0
  9
$DIMBLK1
  1
0
  9
$DIMBLK2
  1
0
  9
$DIMDEC
 70
4
  9
$DIMDLI
 40
0.36
  9
$DIMDSEP
 70
0
  9
$DIMEXE
 40
0.18
  9
$DIMEXO
 40
0.0625
  9
$DIMGAP
 40
0.09
  9
$DIMLFAC
 40
0.0
  9
$DIMLUNIT
 70
2
  9
$DIMSCALE
 40
0.0
  9
$DIMTAD
 70
0
  9
$DIMTIH
 70
0
  9
$DIMTSZ
 40
0.0
  9
$DIMTXT
 40
0.18
  9
$DIMZIN
 70
0
  9
$DWGCODEPAGE
  3
ANSI_1252
  9
$EXTMAX
 10
95.0
 20
95.0
 30
0.0
  9
$EXTMIN
 10
-95.0
 20
-95.0
 30
0.0
  9
$INSBASE
 10
0.0
 20
0.0
 30
0.0
  9
$INSUNITS
 70
0
  9
$LTSCALE
 40
1.0
  9
$MAXACTVP
 70
64
  9
$MEASUREMENT
 70
1
  9
$MIRRTEXT
 70
0
  9
$PDMODE
 70
0
  9
$PDSIZE
 40
0.0
  0
ENDSEC
  0
SECTION
  2
TABLES
  0
TABLE
  2
VPORT
  5
8
100
AcDbSymbolTable
 70
1
  0
VPORT
  5
30
100
AcDbSymbolTableRecord
100
AcDbViewportTableRecord
  2
*Active
 70
0
 10
0.0
 20
0.0
 11
1.0
 21
1.0
 12
286.3055555555554861
 22
148.5
 13
0.0
 23
0.0
 14
10.0
 24
10.0
 15
10.0
 25
10.0
 16
0.0
 26
0.0
 36
1.0
 17
0.0
 27
0.0
 37
0.0
 40
297.0
 41
1.92798353909465
 42
50.0
 43
0.0
 44
0.0
 50
0.0
 51
0.0
 71
0
 72
100
 73
1
 74
3
 75
1
 76
1
 77
0
 78
0
281
0
 65
1
110
0.0
120
0.0
130
0.0
111
1.0
121
0.0
131
0.0
112
0.0
122
1.0
132
0.0
 79
0
146
0.0
  0
ENDTAB
  0
TABLE
  2
LTYPE
  5
5
100
AcDbSymbolTable
 70
41
  0
LTYPE
  5
16
100
AcDbSymbolTableRecord
100
AcDbLinetypeTableRecord
  2
CONTINUOUS
 70
0
  3
Solid line
 72
65
 73
0
 40
0.0
  0
LTYPE
  5
31
100
AcDbSymbolTableRecord
100
AcDbLinetypeTableRecord
  2
DIVIDE
 70
0
  3
Divide ____ . . ____ . . ____ . . ____ . . ____
 72
65
 73
6
 40
31.75
 49
12.6999999999999993
 74
0
 49
-6.3499999999999996
 74
0
 49
0.0
 74
0
 49
-6.3499999999999996
 74
0
 49
0.0
 74
0
 49
-6.3499999999999996
 74
0
  0
LTYPE
  5
32
100
AcDbSymbolTableRecord
100
AcDbLinetypeTableRecord
  2
ACAD_ISO03W100
 70
0
  3
ISO dash space __    __    __    __    __    __
 72
65
 73
2
 40
30.0
 49
12.0
 74
0
 49
-18.0
 74
0
  0
LTYPE
  5
15
100
AcDbSymbolTableRecord
100
AcDbLinetypeTableRecord
  2
BYLAYER
 70
0
  3

 72
65
 73
0
 40
0.0
  0
LTYPE
  5
33
100
AcDbSymbolTableRecord
100
AcDbLinetypeTableRecord
  2
DASHDOTX2
 70
0
  3
Dash dot (2x) ____  .  ____  .  ____  .  ___
 72
65
 73
4
 40
50.7999999999999972
 49
25.3999999999999986
 74
0
 49
-12.6999999999999993
 74
0
 49
0.0
 74
0
 49
-12.6999999999999993
 74
0
  0
LTYPE
  5
34
100
AcDbSymbolTableRecord
100
AcDbLinetypeTableRecord
  2
ACAD_ISO10W100
 70
0
  3
ISO dash dot __ . __ . __ . __ . __ . __ . __ . 
 72
65
 73
4
 40
18.0
 49
12.0
 74
0
 49
-3.0
 74
0
 49
0.0
 74
0
 49
-3.0
 74
0
  0
LTYPE
  5
35
100
AcDbSymbolTableRecord
100
AcDbLinetypeTableRecord
  2
DASHEDX2
 70
0
  3
Dashed (2x) ____  ____  ____  ____  ____  ___
 72
65
 73
2
 40
38.0999999999999943
 49
25.3999999999999986
 74
0
 49
-12.6999999999999993
 74
0
  0
LTYPE
  5
36
100
AcDbSymbolTableRecord
100
AcDbLinetypeTableRecord
  2
DASHDOT
 70
0
  3
Dash dot __ . __ . __ . __ . __ . __ . __ . __
 72
65
 73
4
 40
25.3999999999999986
 49
12.6999999999999993
 74
0
 49
-6.3499999999999996
 74
0
 49
0.0
 74
0
 49
-6.3499999999999996
 74
0
  0
LTYPE
  5
37
100
AcDbSymbolTableRecord
100
AcDbLinetypeTableRecord
  2
DASHDOT2
 70
0
  3
Dash dot (.5x) _._._._._._._._._._._._._._._.
 72
65
 73
4
 40
12.6999999999999993
 49
6.3499999999999996
 74
0
 49
-3.1749999999999998
 74
0
 49
0.0
 74
0
 49
-3.1749999999999998
 74
0
  0
LTYPE
  5
38
100
AcDbSymbolTableRecord
100
AcDbLinetypeTableRecord
  2
ACAD_ISO13W100
 70
0
  3
ISO double-dash double-dot __ __ . . __ __ . . _
 72
65
 73
8
 40
36.0
 49
12.0
 74
0
 49
-3.0
 74
0
 49
12.0
 74
0
 49
-3.0
 74
0
 49
0.0
 74
0
 49
-3.0
 74
0
 49
0.0
 74
0
 49
-3.0
 74
0
  0
LTYPE
  5
39
100
AcDbSymbolTableRecord
100
AcDbLinetypeTableRecord
  2
DOT2
 70
0
  3
Dot (.5x) ........................................
 72
65
 73
2
 40
3.1749999999999998
 49
0.0
 74
0
 49
-3.1749999999999998
 74
0
  0
LTYPE
  5
3A
100
AcDbSymbolTableRecord
100
AcDbLinetypeTableRecord
  2
ACAD_ISO14W100
 70
0
  3
ISO dash triple-dot __ . . . __ . . . __ . . . _
 72
65
 73
8
 40
24.0
 49
12.0
 74
0
 49
-3.0
 74
0
 49
0.0
 74
0
 49
-3.0
 74
0
 49
0.0
 74
0
 49
-3.0
 74
0
 49
0.0
 74
0
 49
-3.0
 74
0
  0
LTYPE
  5
3B
100
AcDbSymbolTableRecord
100
AcDbLinetypeTableRecord
  2
ACAD_ISO12W100
 70
0
  3
ISO dash double-dot __ . . __ . . __ . . __ . . 
 72
65
 73
6
 40
21.0
 49
12.0
 74
0
 49
-3.0
 74
0
 49
0.0
 74
0
 49
-3.0
 74
0
 49
0.0
 74
0
 49
-3.0
 74
0
  0
LTYPE
  5
14
100
AcDbSymbolTableRecord
100
AcDbLinetypeTableRecord
  2
BYBLOCK
 70
0
  3

 72
65
 73
0
 40
0.0
  0
LTYPE
  5
3C
100
AcDbSymbolTableRecord
100
AcDbLinetypeTableRecord
  2
CENTERX2
 70
0
  3
Center (2x) ________  __  ________  __  _____
 72
65
 73
4
 40
101.6000000000000085
 49
63.5
 74
0
 49
-12.6999999999999993
 74
0
 49
12.6999999999999993
 74
0
 49
-12.6999999999999993
 74
0
  0
LTYPE
  5
3D
100
AcDbSymbolTableRecord
100
AcDbLinetypeTableRecord
  2
BORDER
 70
0
  3
Border __ __ . __ __ . __ __ . __ __ . __ __ .
 72
65
 73
6
 40
44.4499999999999957
 49
12.6999999999999993
 74
0
 49
-6.3499999999999996
 74
0
 49
12.6999999999999993
 74
0
 49
-6.3499999999999996
 74
0
 49
0.0
 74
0
 49
-6.3499999999999996
 74
0
  0
LTYPE
  5
3E
100
AcDbSymbolTableRecord
100
AcDbLinetypeTableRecord
  2
BORDERX2
 70
0
  3
Border (2x) ____  ____  .  ____  ____  .  ___
 72
65
 73
6
 40
88.8999999999999915
 49
25.3999999999999986
 74
0
 49
-12.6999999999999993
 74
0
 49
25.3999999999999986
 74
0
 49
-12.6999999999999993
 74
0
 49
0.0
 74
0
 49
-12.6999999999999993
 74
0
  0
LTYPE
  5
3F
100
AcDbSymbolTableRecord
100
AcDbLinetypeTableRecord
  2
ACAD_ISO08W100
 70
0
  3
ISO long-dash short-dash ____ __ ____ __ ____ _
 72
65
 73
4
 40
36.0
 49
24.0
 74
0
 49
-3.0
 74
0
 49
6.0
 74
0
 49
-3.0
 74
0
  0
LTYPE
  5
40
100
AcDbSymbolTableRecord
100
AcDbLinetypeTableRecord
  2
ACAD_ISO11W100
 70
0
  3
ISO double-dash dot __ __ . __ __ . __ __ . __ _
 72
65
 73
6
 40
33.0
 49
12.0
 74
0
 49
-3.0
 74
0
 49
12.0
 74
0
 49
-3.0
 74
0
 49
0.0
 74
0
 49
-3.0
 74
0
  0
LTYPE
  5
41
100
AcDbSymbolTableRecord
100
AcDbLinetypeTableRecord
  2
DASHED
 70
0
  3
Dashed __ __ __ __ __ __ __ __ __ __ __ __ __ _
 72
65
 73
2
 40
19.0499999999999972
 49
12.6999999999999993
 74
0
 49
-6.3499999999999996
 74
0
  0
LTYPE
  5
42
100
AcDbSymbolTableRecord
100
AcDbLinetypeTableRecord
  2
ACAD_ISO07W100
 70
0
  3
ISO dot . . . . . . . . . . . . . . . . . . . . 
 72
65
 73
2
 40
3.0
 49
0.0
 74
0
 49
-3.0
 74
0
  0
LTYPE
  5
43
100
AcDbSymbolTableRecord
100
AcDbLinetypeTableRecord
  2
ACAD_ISO15W100
 70
0
  3
ISO double-dash triple-dot __ __ . . . __ __ . .
 72
65
 73
10
 40
39.0
 49
12.0
 74
0
 49
-3.0
 74
0
 49
12.0
 74
0
 49
-3.0
 74
0
 49
0.0
 74
0
 49
-3.0
 74
0
 49
0.0
 74
0
 49
-3.0
 74
0
 49
0.0
 74
0
 49
-3.0
 74
0
  0
LTYPE
  5
44
100
AcDbSymbolTableRecord
100
AcDbLinetypeTableRecord
  2
DOTX2
 70
0
  3
Dot (2x) .  .  .  .  .  .  .  .  .  .  .  .  .  .
 72
65
 73
2
 40
12.6999999999999993
 49
0.0
 74
0
 49
-12.6999999999999993
 74
0
  0
LTYPE
  5
45
100
AcDbSymbolTableRecord
100
AcDbLinetypeTableRecord
  2
PHANTOM2
 70
0
  3
Phantom (.5x) ___ _ _ ___ _ _ ___ _ _ ___ _ _
 72
65
 73
6
 40
31.7500000000000036
 49
15.875
 74
0
 49
-3.1749999999999998
 74
0
 49
3.1749999999999998
 74
0
 49
-3.1749999999999998
 74
0
 49
3.1749999999999998
 74
0
 49
-3.1749999999999998
 74
0
  0
LTYPE
  5
46
100
AcDbSymbolTableRecord
100
AcDbLinetypeTableRecord
  2
PHANTOMX2
 70
0
  3
Phantom (2x) ____________    ____    ____   _
 72
65
 73
6
 40
127.0000000000000142
 49
63.5
 74
0
 49
-12.6999999999999993
 74
0
 49
12.6999999999999993
 74
0
 49
-12.6999999999999993
 74
0
 49
12.6999999999999993
 74
0
 49
-12.6999999999999993
 74
0
  0
LTYPE
  5
47
100
AcDbSymbolTableRecord
100
AcDbLinetypeTableRecord
  2
ACAD_ISO06W100
 70
0
  3
ISO long-dash triple-dot ____ ... ____ ... ____
 72
65
 73
8
 40
36.0
 49
24.0
 74
0
 49
-3.0
 74
0
 49
0.0
 74
0
 49
-3.0
 74
0
 49
0.0
 74
0
 49
-3.0
 74
0
 49
0.0
 74
0
 49
-3.0
 74
0
  0
LTYPE
  5
48
100
AcDbSymbolTableRecord
100
AcDbLinetypeTableRecord
  2
HIDDENX2
 70
0
  3
Hidden (2x) ____ ____ ____ ____ ____ ____ ____ 
 72
65
 73
2
 40
19.0499999999999972
 49
12.6999999999999993
 74
0
 49
-6.3499999999999996
 74
0
  0
LTYPE
  5
49
100
AcDbSymbolTableRecord
100
AcDbLinetypeTableRecord
  2
DOT
 70
0
  3
Dot . . . . . . . . . . . . . . . . . . . . . . . .
 72
65
 73
2
 40
6.3499999999999996
 49
0.0
 74
0
 49
-6.3499999999999996
 74
0
  0
LTYPE
  5
4A
100
AcDbSymbolTableRecord
100
AcDbLinetypeTableRecord
  2
ACAD_ISO02W100
 70
0
  3
ISO dash __ __ __ __ __ __ __ __ __ __ __ __ __
 72
65
 73
2
 40
15.0
 49
12.0
 74
0
 49
-3.0
 74
0
  0
LTYPE
  5
4B
100
AcDbSymbolTableRecord
100
AcDbLinetypeTableRecord
  2
HIDDEN
 70
0
  3
Hidden __ __ __ __ __ __ __ __ __ __ __ __ __ __
 72
65
 73
2
 40
9.5249999999999986
 49
6.3499999999999996
 74
0
 49
-3.1749999999999998
 74
0
  0
LTYPE
  5
4C
100
AcDbSymbolTableRecord
100
AcDbLinetypeTableRecord
  2
PHANTOM
 70
0
  3
Phantom ______  __  __  ______  __  __  ______ 
 72
65
 73
6
 40
63.5000000000000071
 49
31.75
 74
0
 49
-6.3499999999999996
 74
0
 49
6.3499999999999996
 74
0
 49
-6.3499999999999996
 74
0
 49
6.3499999999999996
 74
0
 49
-6.3499999999999996
 74
0
  0
LTYPE
  5
4D
100
AcDbSymbolTableRecord
100
AcDbLinetypeTableRecord
  2
ACAD_ISO04W100
 70
0
  3
ISO long-dash dot ____ . ____ . ____ . ____ . _
 72
65
 73
4
 40
30.0
 49
24.0
 74
0
 49
-3.0
 74
0
 49
0.0
 74
0
 49
-3.0
 74
0
  0
LTYPE
  5
4E
100
AcDbSymbolTableRecord
100
AcDbLinetypeTableRecord
  2
DIVIDE2
 70
0
  3
Divide (.5x) __..__..__..__..__..__..__..__.._
 72
65
 73
6
 40
15.875
 49
6.3499999999999996
 74
0
 49
-3.1749999999999998
 74
0
 49
0.0
 74
0
 49
-3.1749999999999998
 74
0
 49
0.0
 74
0
 49
-3.1749999999999998
 74
0
  0
LTYPE
  5
4F
100
AcDbSymbolTableRecord
100
AcDbLinetypeTableRecord
  2
CENTER2
 70
0
  3
Center (.5x) ___ _ ___ _ ___ _ ___ _ ___ _ ___
 72
65
 73
4
 40
28.5750000000000028
 49
19.0500000000000007
 74
0
 49
-3.1749999999999998
 74
0
 49
3.1749999999999998
 74
0
 49
-3.1749999999999998
 74
0
  0
LTYPE
  5
50
100
AcDbSymbolTableRecord
100
AcDbLinetypeTableRecord
  2
DASHED2
 70
0
  3
Dashed (.5x) _ _ _ _ _ _ _ _ _ _ _ _ _ _ _ _ _ 
 72
65
 73
2
 40
9.5249999999999986
 49
6.3499999999999996
 74
0
 49
-3.1749999999999998
 74
0
  0
LTYPE
  5
51
100
AcDbSymbolTableRecord
100
AcDbLinetypeTableRecord
  2
BORDER2
 70
0
  3
Border (.5x) __.__.__.__.__.__.__.__.__.__.__.
 72
65
 73
6
 40
22.2249999999999979
 49
6.3499999999999996
 74
0
 49
-3.1749999999999998
 74
0
 49
6.3499999999999996
 74
0
 49
-3.1749999999999998
 74
0
 49
0.0
 74
0
 49
-3.1749999999999998
 74
0
  0
LTYPE
  5
52
100
AcDbSymbolTableRecord
100
AcDbLinetypeTableRecord
  2
ACAD_ISO05W100
 70
0
  3
ISO long-dash double-dot ____ .. ____ .. ____ . 
 72
65
 73
6
 40
33.0
 49
24.0
 74
0
 49
-3.0
 74
0
 49
0.0
 74
0
 49
-3.0
 74
0
 49
0.0
 74
0
 49
-3.0
 74
0
  0
LTYPE
  5
53
100
AcDbSymbolTableRecord
100
AcDbLinetypeTableRecord
  2
CENTER
 70
0
  3
Center ____ _ ____ _ ____ _ ____ _ ____ _ ____
 72
65
 73
4
 40
50.8000000000000043
 49
31.75
 74
0
 49
-6.3499999999999996
 74
0
 49
6.3499999999999996
 74
0
 49
-6.3499999999999996
 74
0
  0
LTYPE
  5
54
100
AcDbSymbolTableRecord
100
AcDbLinetypeTableRecord
  2
ACAD_ISO09W100
 70
0
  3
ISO long-dash double-short-dash ____ __ __ ____
 72
65
 73
6
 40
45.0
 49
24.0
 74
0
 49
-3.0
 74
0
 49
6.0
 74
0
 49
-3.0
 74
0
 49
6.0
 74
0
 49
-3.0
 74
0
  0
LTYPE
  5
55
100
AcDbSymbolTableRecord
100
AcDbLinetypeTableRecord
  2
DIVIDEX2
 70
0
  3
Divide (2x) ________  .  .  ________  .  .  _
 72
65
 73
6
 40
63.5
 49
25.3999999999999986
 74
0
 49
-12.6999999999999993
 74
0
 49
0.0
 74
0
 49
-12.6999999999999993
 74
0
 49
0.0
 74
0
 49
-12.6999999999999993
 74
0
  0
LTYPE
  5
56
100
AcDbSymbolTableRecord
100
AcDbLinetypeTableRecord
  2
HIDDEN2
 70
0
  3
Hidden (.5x) _ _ _ _ _ _ _ _ _ _ _ _ _ _ _ _ _ 
 72
65
 73
2
 40
4.7624999999999993
 49
3.1749999999999998
 74
0
 49
-1.5874999999999999
 74
0
  0
ENDTAB
  0
TABLE
  2
LAYER
  5
2
100
AcDbSymbolTable
 70
1
  0
LAYER
  5
10
100
AcDbSymbolTableRecord
100
AcDbLayerTableRecord
  2
0
 70
0
 62
7
420
16777215
  6
CONTINUOUS
370
5
390
F
  0
ENDTAB
  0
TABLE
  2
STYLE
  5
3
100
AcDbSymbolTable
 70
1
  0
STYLE
  5
57
100
AcDbSymbolTableRecord
100
AcDbTextStyleTableRecord
  2
Standard
 70
0
 40
0.0
 41
1.0
 50
0.0
 71
0
 42
2.5
  3

  4

1001
ACAD
1000
txt
1071
0
  0
ENDTAB
  0
TABLE
  2
VIEW
  5
6
100
AcDbSymbolTable
 70
0
  0
ENDTAB
  0
TABLE
  2
UCS
  5
7
100
AcDbSymbolTable
 70
0
  0
ENDTAB
  0
TABLE
  2
APPID
  5
9
100
AcDbSymbolTable
 70
1
  0
APPID
  5
12
100
AcDbSymbolTableRecord
100
AcDbRegAppTableRecord
  2
ACAD
 70
0
  0
APPID
  5
58
100
AcDbSymbolTableRecord
100
AcDbRegAppTableRecord
  2
QCAD
 70
0
  0
ENDTAB
  0
TABLE
  2
DIMSTYLE
  5
A
100
AcDbSymbolTable
 70
1
100
AcDbDimStyleTable
 71
0
  0
DIMSTYLE
105
27
100
AcDbSymbolTableRecord
100
AcDbDimStyleTableRecord
  2
Standard
 41
0.18
 42
0.0625
 43
3.75
 44
0.18
 70
0
 73
0
 74
0
 77
0
 78
8
140
0.18
141
2.5
143
0.03937007874016
147
0.09
171
3
172
1
271
2
272
2
274
3
278
44
283
0
284
8
340
57
  0
ENDTAB
  0
TABLE
  2
BLOCK_RECORD
  5
1
100
AcDbSymbolTable
 70
1
  0
BLOCK_RECORD
  5
1F
100
AcDbSymbolTableRecord
100
AcDbBlockTableRecord
  2
*Model_Space
340
22
  0
BLOCK_RECORD
  5
1B
100
AcDbSymbolTableRecord
100
AcDbBlockTableRecord
  2
*Paper_Space
340
1E
  0
BLOCK_RECORD
  5
23
100
AcDbSymbolTableRecord
100
AcDbBlockTableRecord
  2
*Paper_Space0
340
26
  0
ENDTAB
  0
ENDSEC
  0
SECTION
  2
BLOCKS
  0
BLOCK
  5
20
100
AcDbEntity
  8
0
100
AcDbBlockBegin
  2
*Model_Space
 70
0
 10
0.0
 20
0.0
 30
0.0
  3
*Model_Space
  1

  0
ENDBLK
  5
21
100
AcDbEntity
  8
0
100
AcDbBlockEnd
  0
BLOCK
  5
1C
100
AcDbEntity
 67
1
  8
0
100
AcDbBlockBegin
  2
*Paper_Space
 70
0
 10
0.0
 20
0.0
 30
0.0
  3
*Paper_Space
  1

  0
ENDBLK
  5
1D
100
AcDbEntity
 67
1
  8
0
100
AcDbBlockEnd
  0
BLOCK
  5
24
100
AcDbEntity
  8
0
100
AcDbBlockBegin
  2
*Paper_Space0
 70
0
 10
0.0
 20
0.0
 30
0.0
  3
*Paper_Space0
  1

  0
ENDBLK
  5
25
100
AcDbEntity
  8
0
100
AcDbBlockEnd
  0
ENDSEC
  0
SECTION
  2
ENTITIES
  0
ARC
  5
59
100
AcDbEntity
  8
0
 62
256
370
-1
 48
1.0
  6
BYLAYER
100
AcDbCircle
 10
-95.0004017959977176
 20
95.0018681268358591
 30
0.0
 40
15.001868132216492
100
AcDbArc
 50
270.001534556542822
 51
297.8192193021723142
  0
ARC
  5
5A
100
AcDbEntity
  8
0
 62
256
370
-1
 48
1.0
  6
BYLAYER
100
AcDbCircle
 10
-95.0003834079585232
 20
285.0018681268358591
 30
0.0
 40
15.001868132216492
100
AcDbArc
 50
270.001534556542822
 51
297.8192193021723142
  0
ARC
  5
5B
100
AcDbEntity
  8
0
 62
256
370
-1
 48
1.0
  6
BYLAYER
100
AcDbCircle
 10
94.9995982040022824
 20
95.0018681268360012
 30
0.0
 40
15.001868132216492
100
AcDbArc
 50
270.001534556542822
 51
297.8192193021723142
  0
ARC
  5
5C
100
AcDbEntity
  8
0
 62
256
370
-1
 48
1.0
  6
BYLAYER
100
AcDbCircle
 10
94.9996165920414768
 20
285.0018681268360297
 30
0.0
 40
15.001868132216492
100
AcDbArc
 50
270.001534556542822
 51
297.8192193021723142
  0
ARC
  5
5D
100
AcDbEntity
  8
0
 62
256
370
-1
 48
1.0
  6
BYLAYER
100
AcDbCircle
 10
284.9995982040022682
 20
95.0018681268361433
 30
0.0
 40
15.001868132216492
100
AcDbArc
 50
270.001534556542822
 51
297.8192193021723142
  0
ARC
  5
5E
100
AcDbEntity
  8
0
 62
256
370
-1
 48
1.0
  6
BYLAYER
100
AcDbCircle
 10
284.999616592041491
 20
285.0018681268361433
 30
0.0
 40
15.001868132216492
100
AcDbArc
 50
270.001534556542822
 51
297.8192193021723142
  0
ARC
  5
5F
100
AcDbEntity
  8
0
 62
256
370
-1
 48
1.0
  6
BYLAYER
100
AcDbCircle
 10
-94.9956855131110132
 20
94.9995877917720009
 30
0.0
 40
14.9956855187764972
100
AcDbArc
 50
332.1745110853062215
 51
0.0015749724232617
  0
ARC
  5
60
100
AcDbEntity
  8
0
 62
256
370
-1
 48
1.0
  6
BYLAYER
100
AcDbCircle
 10
-94.9956671250718188
 20
284.9995877917720009
 30
0.0
 40
14.9956855187764972
100
AcDbArc
 50
332.1745110853062215
 51
0.0015749724232617
  0
ARC
  5
61
100
AcDbEntity
  8
0
 62
256
370
-1
 48
1.0
  6
BYLAYER
100
AcDbCircle
 10
95.0043144868889868
 20
94.999587791772143
 30
0.0
 40
14.9956855187764972
100
AcDbArc
 50
332.1745110853062215
 51
0.0015749724232617
  0
ARC
  5
62
100
AcDbEntity
  8
0
 62
256
370
-1
 48
1.0
  6
BYLAYER
100
AcDbCircle
 10
95.0043328749281812
 20
284.9995877917721145
 30
0.0
 40
14.9956855187764972
100
AcDbArc
 50
332.1745110853062215
 51
0.0015749724232617
  0
ARC
  5
63
100
AcDbEntity
  8
0
 62
256
370
-1
 48
1.0
  6
BYLAYER
100
AcDbCircle
 10
285.0043144868889726
 20
94.9995877917722851
 30
0.0
 40
14.9956855187764972
100
AcDbArc
 50
332.1745110853062215
 51
0.0015749724232617
  0
ARC
  5
64
100
AcDbEntity
  8
0
 62
256
370
-1
 48
1.0
  6
BYLAYER
100
AcDbCircle
 10
285.0043328749281955
 20
284.9995877917722851
 30
0.0
 40
14.9956855187764972
100
AcDbArc
 50
332.1745110853062215
 51
0.0015749724232617
  0
ARC
  5
65
100
AcDbEntity
  8
0
 62
256
370
-1
 48
1.0
  6
BYLAYER
100
AcDbCircle
 10
94.9943311513589066
 20
94.9992523211585365
 30
0.0
 40
14.9943311700001018
100
AcDbArc
 50
179.9971429974344517
 51
207.8267709447605966
  0
ARC
  5
66
100
AcDbEntity
  8
0
 62
256
370
-1
 48
1.0
  6
BYLAYER
100
AcDbCircle
 10
94.994349539398101
 20
284.9992523211585649
 30
0.0
 40
14.9943311700001018
100
AcDbArc
 50
179.9971429974344517
 51
207.8267709447605966
  0
ARC
  5
67
100
AcDbEntity
  8
0
 62
256
370
-1
 48
1.0
  6
BYLAYER
100
AcDbCircle
 10
284.9943311513588924
 20
94.9992523211586786
 30
0.0
 40
14.9943311700001018
100
AcDbArc
 50
179.9971429974344517
 51
207.8267709447605966
  0
ARC
  5
68
100
AcDbEntity
  8
0
 62
256
370
-1
 48
1.0
  6
BYLAYER
100
AcDbCircle
 10
284.9943495393981152
 20
284.9992523211586786
 30
0.0
 40
14.9943311700001018
100
AcDbArc
 50
179.9971429974344517
 51
207.8267709447605966
  0
ARC
  5
69
100
AcDbEntity
  8
0
 62
256
370
-1
 48
1.0
  6
BYLAYER
100
AcDbCircle
 10
474.9943311513588924
 20
94.9992523211588207
 30
0.0
 40
14.9943311700001018
100
AcDbArc
 50
179.9971429974344517
 51
207.8267709447605966
  0
ARC
  5
6A
100
AcDbEntity
  8
0
 62
256
370
-1
 48
1.0
  6
BYLAYER
100
AcDbCircle
 10
474.9943495393981152
 20
284.9992523211588491
 30
0.0
 40
14.9943311700001018
100
AcDbArc
 50
179.9971429974344517
 51
207.8267709447605966
  0
ARC
  5
6B
100
AcDbEntity
  8
0
 62
256
370
-1
 48
1.0
  6
BYLAYER
100
AcDbCircle
 10
94.99957298849192
 20
94.9984158690623417
 30
0.0
 40
14.9984158751409442
100
AcDbArc
 50
242.1774994696079659
 51
270.0016312360867801
  0
ARC
  5
6C
100
AcDbEntity
  8
0
 62
256
370
-1
 48
1.0
  6
BYLAYER
100
AcDbCircle
 10
94.9995913765311144
 20
284.9984158690623417
 30
0.0
 40
14.9984158751409442
100
AcDbArc
 50
242.1774994696079659
 51
270.0016312360867801
  0
ARC
  5
6D
100
AcDbEntity
  8
0
 62
256
370
-1
 48
1.0
  6
BYLAYER
100
AcDbCircle
 10
284.9995729884919342
 20
94.9984158690624838
 30
0.0
 40
14.9984158751409442
100
AcDbArc
 50
242.1774994696079659
 51
270.0016312360867801
  0
ARC
  5
6E
100
AcDbEntity
  8
0
 62
256
370
-1
 48
1.0
  6
BYLAYER
100
AcDbCircle
 10
284.9995913765311002
 20
284.9984158690624554
 30
0.0
 40
14.9984158751409442
100
AcDbArc
 50
242.1774994696079659
 51
270.0016312360867801
  0
ARC
  5
6F
100
AcDbEntity
  8
0
 62
256
370
-1
 48
1.0
  6
BYLAYER
100
AcDbCircle
 10
474.9995729884919342
 20
94.9984158690626259
 30
0.0
 40
14.9984158751409442
100
AcDbArc
 50
242.1774994696079659
 51
270.0016312360867801
  0
ARC
  5
70
100
AcDbEntity
  8
0
 62
256
370
-1
 48
1.0
  6
BYLAYER
100
AcDbCircle
 10
474.9995913765311002
 20
284.9984158690626259
 30
0.0
 40
14.9984158751409442
100
AcDbArc
 50
242.1774994696079659
 51
270.0016312360867801
  0
ARC
  5
71
100
AcDbEntity
  8
0
 62
256
370
-1
 48
1.0
  6
BYLAYER
100
AcDbCircle
 10
94.996124321369976
 20
-94.9996964830249624
 30
0.0
 40
14.9961243244415208
100
AcDbArc
 50
152.1749264086953701
 51
180.0011596490355714
  0
ARC
  5
72
100
AcDbEntity
  8
0
 62
256
370
-1
 48
1.0
  6
BYLAYER
100
AcDbCircle
 10
94.9961427094091704
 20
95.0003035169750376
 30
0.0
 40
14.9961243244415208
100
AcDbArc
 50
152.1749264086953701
 51
180.0011596490355714
  0
ARC
  5
73
100
AcDbEntity
  8
0
 62
256
370
-1
 48
1.0
  6
BYLAYER
100
AcDbCircle
 10
284.9961243213699618
 20
-94.9996964830248203
 30
0.0
 40
14.9961243244415208
100
AcDbArc
 50
152.1749264086953701
 51
180.0011596490355714
  0
ARC
  5
74
100
AcDbEntity
  8
0
 62
256
370
-1
 48
1.0
  6
BYLAYER
100
AcDbCircle
 10
284.9961427094091846
 20
95.0003035169751797
 30
0.0
 40
14.9961243244415208
100
AcDbArc
 50
152.1749264086953701
 51
180.0011596490355714
  0
ARC
  5
75
100
AcDbEntity
  8
0
 62
256
370
-1
 48
1.0
  6
BYLAYER
100
AcDbCircle
 10
474.9961243213699618
 20
-94.9996964830246782
 30
0.0
 40
14.9961243244415208
100
AcDbArc
 50
152.1749264086953701
 51
180.0011596490355714
  0
ARC
  5
76
100
AcDbEntity
  8
0
 62
256
370
-1
 48
1.0
  6
BYLAYER
100
AcDbCircle
 10
474.9961427094091846
 20
95.0003035169753218
 30
0.0
 40
14.9961243244415208
100
AcDbArc
 50
152.1749264086953701
 51
180.0011596490355714
  0
ARC
  5
77
100
AcDbEntity
  8
0
 62
256
370
-1
 48
1.0
  6
BYLAYER
100
AcDbCircle
 10
-94.9995830236682224
 20
-94.9998126936732348
 30
0.0
 40
14.9995646367985351
100
AcDbArc
 50
359.9992845218928892
 51
27.0002265661042458
  0
ARC
  5
78
100
AcDbEntity
  8
0
 62
256
370
-1
 48
1.0
  6
BYLAYER
100
AcDbCircle
 10
-94.999564635629028
 20
95.0001873063267652
 30
0.0
 40
14.9995646367985351
100
AcDbArc
 50
359.9992845218928892
 51
27.0002265661042458
  0
ARC
  5
79
100
AcDbEntity
  8
0
 62
256
370
-1
 48
1.0
  6
BYLAYER
100
AcDbCircle
 10
95.0004169763317776
 20
-94.9998126936730927
 30
0.0
 40
14.9995646367985351
100
AcDbArc
 50
359.9992845218928892
 51
27.0002265661042458
  0
ARC
  5
7A
100
AcDbEntity
  8
0
 62
256
370
-1
 48
1.0
  6
BYLAYER
100
AcDbCircle
 10
95.000435364370972
 20
95.0001873063269073
 30
0.0
 40
14.9995646367985351
100
AcDbArc
 50
359.9992845218928892
 51
27.0002265661042458
  0
ARC
  5
7B
100
AcDbEntity
  8
0
 62
256
370
-1
 48
1.0
  6
BYLAYER
100
AcDbCircle
 10
285.0004169763317918
 20
-94.9998126936729506
 30
0.0
 40
14.9995646367985351
100
AcDbArc
 50
359.9992845218928892
 51
27.0002265661042458
  0
ARC
  5
7C
100
AcDbEntity
  8
0
 62
256
370
-1
 48
1.0
  6
BYLAYER
100
AcDbCircle
 10
285.0004353643709578
 20
95.0001873063270494
 30
0.0
 40
14.9995646367985351
100
AcDbArc
 50
359.9992845218928892
 51
27.0002265661042458
  0
ARC
  5
7D
100
AcDbEntity
  8
0
 62
256
370
-1
 48
1.0
  6
BYLAYER
100
AcDbCircle
 10
-94.9996964830249624
 20
-94.996124321369976
 30
0.0
 40
14.9961243244415208
100
AcDbArc
 50
62.1749264086764555
 51
90.0011596490736707
  0
ARC
  5
7E
100
AcDbEntity
  8
0
 62
256
370
-1
 48
1.0
  6
BYLAYER
100
AcDbCircle
 10
-94.999678094985768
 20
95.003875678630024
 30
0.0
 40
14.9961243244415208
100
AcDbArc
 50
62.1749264086764555
 51
90.0011596490736707
  0
ARC
  5
7F
100
AcDbEntity
  8
0
 62
256
370
-1
 48
1.0
  6
BYLAYER
100
AcDbCircle
 10
95.0003035169750376
 20
-94.9961243213698339
 30
0.0
 40
14.9961243244415208
100
AcDbArc
 50
62.1749264086764555
 51
90.0011596490736707
  0
ARC
  5
80
100
AcDbEntity
  8
0
 62
256
370
-1
 48
1.0
  6
BYLAYER
100
AcDbCircle
 10
95.000321905014232
 20
95.0038756786301661
 30
0.0
 40
14.9961243244415208
100
AcDbArc
 50
62.1749264086764555
 51
90.0011596490736707
  0
ARC
  5
81
100
AcDbEntity
  8
0
 62
256
370
-1
 48
1.0
  6
BYLAYER
100
AcDbCircle
 10
285.0003035169750092
 20
-94.9961243213696918
 30
0.0
 40
14.9961243244415208
100
AcDbArc
 50
62.1749264086764555
 51
90.0011596490736707
  0
ARC
  5
82
100
AcDbEntity
  8
0
 62
256
370
-1
 48
1.0
  6
BYLAYER
100
AcDbCircle
 10
285.000321905014232
 20
95.0038756786303082
 30
0.0
 40
14.9961243244415208
100
AcDbArc
 50
62.1749264086764555
 51
90.0011596490736707
  0
LINE
  5
83
100
AcDbEntity
  8
0
 62
256
370
-1
 48
1.0
  6
BYLAYER
100
AcDbLine
 10
-95.0
 20
-80.0
 30
0.0
 11
-95.0
 21
80.0000000000000284
 31
0.0
  0
LINE
  5
84
100
AcDbEntity
  8
0
 62
256
370
-1
 48
1.0
  6
BYLAYER
100
AcDbLine
 10
-94.9999816119608056
 20
110.0
 30
0.0
 11
-94.9999816119608056
 21
270.0
 31
0.0
  0
LINE
  5
85
100
AcDbEntity
  8
0
 62
256
370
-1
 48
1.0
  6
BYLAYER
100
AcDbLine
 10
-87.9992798993885543
 20
81.7338486949374925
 30
0.0
 11
-86.7429000000000201
 21
81.6299000000000063
 31
0.0
  0
LINE
  5
86
100
AcDbEntity
  8
0
 62
256
370
-1
 48
1.0
  6
BYLAYER
100
AcDbLine
 10
-87.9992615113493599
 20
271.7338486949374783
 30
0.0
 11
-86.7428816119608257
 21
271.6299000000000206
 31
0.0
  0
LINE
  5
87
100
AcDbEntity
  8
0
 62
256
370
-1
 48
1.0
  6
BYLAYER
100
AcDbLine
 10
102.0007201006114457
 20
81.7338486949376346
 30
0.0
 11
103.2570999999999799
 21
81.6299000000001485
 31
0.0
  0
LINE
  5
88
100
AcDbEntity
  8
0
 62
256
370
-1
 48
1.0
  6
BYLAYER
100
AcDbLine
 10
102.0007384886506401
 20
271.733848694937592
 30
0.0
 11
103.2571183880391743
 21
271.6299000000001342
 31
0.0
  0
LINE
  5
89
100
AcDbEntity
  8
0
 62
256
370
-1
 48
1.0
  6
BYLAYER
100
AcDbLine
 10
292.0007201006114315
 20
81.7338486949377767
 30
0.0
 11
293.2570999999999799
 21
81.6299000000002906
 31
0.0
  0
LINE
  5
8A
100
AcDbEntity
  8
0
 62
256
370
-1
 48
1.0
  6
BYLAYER
100
AcDbLine
 10
292.0007384886506543
 20
271.7338486949377625
 30
0.0
 11
293.2571183880392027
 21
271.6299000000003048
 31
0.0
  0
LINE
  5
8B
100
AcDbEntity
  8
0
 62
256
370
-1
 48
1.0
  6
BYLAYER
100
AcDbLine
 10
-86.7429000000000201
 20
81.6299000000000063
 30
0.0
 11
-83.2620000000000005
 21
76.7565999999999917
 31
0.0
  0
LINE
  5
8C
100
AcDbEntity
  8
0
 62
256
370
-1
 48
1.0
  6
BYLAYER
100
AcDbLine
 10
-86.7428816119608257
 20
271.6299000000000206
 30
0.0
 11
-83.261981611960806
 21
266.7565999999999917
 31
0.0
  0
LINE
  5
8D
100
AcDbEntity
  8
0
 62
256
370
-1
 48
1.0
  6
BYLAYER
100
AcDbLine
 10
103.2570999999999799
 20
81.6299000000001485
 30
0.0
 11
106.7379999999999995
 21
76.7566000000001338
 31
0.0
  0
LINE
  5
8E
100
AcDbEntity
  8
0
 62
256
370
-1
 48
1.0
  6
BYLAYER
100
AcDbLine
 10
103.2571183880391743
 20
271.6299000000001342
 30
0.0
 11
106.738018388039194
 21
266.7566000000001623
 31
0.0
  0
LINE
  5
8F
100
AcDbEntity
  8
0
 62
256
370
-1
 48
1.0
  6
BYLAYER
100
AcDbLine
 10
293.2570999999999799
 20
81.6299000000002906
 30
0.0
 11
296.7379999999999995
 21
76.7566000000002759
 31
0.0
  0
LINE
  5
90
100
AcDbEntity
  8
0
 62
256
370
-1
 48
1.0
  6
BYLAYER
100
AcDbLine
 10
293.2571183880392027
 20
271.6299000000003048
 30
0.0
 11
296.7380183880392224
 21
266.7566000000002759
 31
0.0
  0
LINE
  5
91
100
AcDbEntity
  8
0
 62
256
370
-1
 48
1.0
  6
BYLAYER
100
AcDbLine
 10
-83.2620000000000147
 20
76.7565999999999775
 30
0.0
 11
-76.7566000000000059
 21
83.2620000000000005
 31
0.0
  0
LINE
  5
92
100
AcDbEntity
  8
0
 62
256
370
-1
 48
1.0
  6
BYLAYER
100
AcDbLine
 10
-83.2619816119608203
 20
266.7565999999999917
 30
0.0
 11
-76.7565816119608115
 21
273.2620000000000005
 31
0.0
  0
LINE
  5
93
100
AcDbEntity
  8
0
 62
256
370
-1
 48
1.0
  6
BYLAYER
100
AcDbLine
 10
106.7379999999999853
 20
76.7566000000001196
 30
0.0
 11
113.2433999999999941
 21
83.2620000000001426
 31
0.0
  0
LINE
  5
94
100
AcDbEntity
  8
0
 62
256
370
-1
 48
1.0
  6
BYLAYER
100
AcDbLine
 10
106.7380183880391797
 20
266.7566000000001623
 30
0.0
 11
113.2434183880391885
 21
273.262000000000171
 31
0.0
  0
LINE
  5
95
100
AcDbEntity
  8
0
 62
256
370
-1
 48
1.0
  6
BYLAYER
100
AcDbLine
 10
296.7379999999999995
 20
76.7566000000002617
 30
0.0
 11
303.2434000000000083
 21
83.2620000000002847
 31
0.0
  0
LINE
  5
96
100
AcDbEntity
  8
0
 62
256
370
-1
 48
1.0
  6
BYLAYER
100
AcDbLine
 10
296.7380183880391655
 20
266.7566000000002759
 30
0.0
 11
303.2434183880391743
 21
273.2620000000002847
 31
0.0
  0
LINE
  5
97
100
AcDbEntity
  8
0
 62
256
370
-1
 48
1.0
  6
BYLAYER
100
AcDbLine
 10
-76.7566000000000059
 20
83.2620000000000005
 30
0.0
 11
-81.6298999999999921
 21
86.7428999999999775
 31
0.0
  0
LINE
  5
98
100
AcDbEntity
  8
0
 62
256
370
-1
 48
1.0
  6
BYLAYER
100
AcDbLine
 10
-76.7565816119608115
 20
273.2620000000000005
 30
0.0
 11
-81.6298816119607977
 21
276.7428999999999633
 31
0.0
  0
LINE
  5
99
100
AcDbEntity
  8
0
 62
256
370
-1
 48
1.0
  6
BYLAYER
100
AcDbLine
 10
113.2433999999999941
 20
83.2620000000001426
 30
0.0
 11
108.3701000000000079
 21
86.7429000000001196
 31
0.0
  0
LINE
  5
9A
100
AcDbEntity
  8
0
 62
256
370
-1
 48
1.0
  6
BYLAYER
100
AcDbLine
 10
113.2434183880391885
 20
273.262000000000171
 30
0.0
 11
108.3701183880392023
 21
276.7429000000000769
 31
0.0
  0
LINE
  5
9B
100
AcDbEntity
  8
0
 62
256
370
-1
 48
1.0
  6
BYLAYER
100
AcDbLine
 10
303.2434000000000083
 20
83.2620000000002847
 30
0.0
 11
298.3700999999999794
 21
86.7429000000002617
 31
0.0
  0
LINE
  5
9C
100
AcDbEntity
  8
0
 62
256
370
-1
 48
1.0
  6
BYLAYER
100
AcDbLine
 10
303.2434183880391743
 20
273.2620000000002847
 30
0.0
 11
298.3701183880392023
 21
276.7429000000002475
 31
0.0
  0
LINE
  5
9D
100
AcDbEntity
  8
0
 62
256
370
-1
 48
1.0
  6
BYLAYER
100
AcDbLine
 10
-81.6298999999999921
 20
86.7428999999999775
 30
0.0
 11
-81.7339000000002756
 21
87.9998999999994709
 31
0.0
  0
LINE
  5
9E
100
AcDbEntity
  8
0
 62
256
370
-1
 48
1.0
  6
BYLAYER
100
AcDbLine
 10
-81.6298816119607977
 20
276.7428999999999633
 30
0.0
 11
-81.7338816119610811
 21
277.9998999999994567
 31
0.0
  0
LINE
  5
9F
100
AcDbEntity
  8
0
 62
256
370
-1
 48
1.0
  6
BYLAYER
100
AcDbLine
 10
108.3701000000000079
 20
86.7429000000001196
 30
0.0
 11
108.2660999999997244
 21
87.999899999999613
 31
0.0
  0
LINE
  5
A0
100
AcDbEntity
  8
0
 62
256
370
-1
 48
1.0
  6
BYLAYER
100
AcDbLine
 10
108.3701183880392023
 20
276.7429000000000769
 30
0.0
 11
108.2661183880389189
 21
277.9998999999995704
 31
0.0
  0
LINE
  5
A1
100
AcDbEntity
  8
0
 62
256
370
-1
 48
1.0
  6
BYLAYER
100
AcDbLine
 10
298.3700999999999794
 20
86.7429000000002617
 30
0.0
 11
298.2660999999997102
 21
87.9998999999997551
 31
0.0
  0
LINE
  5
A2
100
AcDbEntity
  8
0
 62
256
370
-1
 48
1.0
  6
BYLAYER
100
AcDbLine
 10
298.3701183880392023
 20
276.7429000000002475
 30
0.0
 11
298.2661183880389331
 21
277.9998999999997409
 31
0.0
  0
LINE
  5
A3
100
AcDbEntity
  8
0
 62
256
370
-1
 48
1.0
  6
BYLAYER
100
AcDbLine
 10
-79.9999816119605782
 20
285.0
 30
0.0
 11
80.000018388039166
 21
285.0000000000032969
 31
0.0
  0
LINE
  5
A4
100
AcDbEntity
  8
0
 62
256
370
-1
 48
1.0
  6
BYLAYER
100
AcDbLine
 10
110.0000183880394218
 20
285.0000000000001137
 30
0.0
 11
270.000018388039166
 21
285.0000000000034106
 31
0.0
  0
LINE
  5
A5
100
AcDbEntity
  8
0
 62
256
370
-1
 48
1.0
  6
BYLAYER
100
AcDbLine
 10
300.0000183880393934
 20
285.0000000000002842
 30
0.0
 11
460.000018388039166
 21
285.0000000000035811
 31
0.0
  0
LINE
  5
A6
100
AcDbEntity
  8
0
 62
256
370
-1
 48
1.0
  6
BYLAYER
100
AcDbLine
 10
81.7339000000000198
 20
87.9998999999999967
 30
0.0
 11
81.6299000000000063
 21
86.7428999999999917
 31
0.0
  0
LINE
  5
A7
100
AcDbEntity
  8
0
 62
256
370
-1
 48
1.0
  6
BYLAYER
100
AcDbLine
 10
81.7339183880392142
 20
277.9999000000000251
 30
0.0
 11
81.6299183880392007
 21
276.7428999999999633
 31
0.0
  0
LINE
  5
A8
100
AcDbEntity
  8
0
 62
256
370
-1
 48
1.0
  6
BYLAYER
100
AcDbLine
 10
271.7339000000000055
 20
87.9999000000001388
 30
0.0
 11
271.6299000000000206
 21
86.7429000000001338
 31
0.0
  0
LINE
  5
A9
100
AcDbEntity
  8
0
 62
256
370
-1
 48
1.0
  6
BYLAYER
100
AcDbLine
 10
271.7339183880392284
 20
277.9999000000001388
 30
0.0
 11
271.6299183880391865
 21
276.7429000000000769
 31
0.0
  0
LINE
  5
AA
100
AcDbEntity
  8
0
 62
256
370
-1
 48
1.0
  6
BYLAYER
100
AcDbLine
 10
461.7339000000000055
 20
87.9999000000002809
 30
0.0
 11
461.6299000000000206
 21
86.7429000000002759
 31
0.0
  0
LINE
  5
AB
100
AcDbEntity
  8
0
 62
256
370
-1
 48
1.0
  6
BYLAYER
100
AcDbLine
 10
461.7339183880392284
 20
277.9999000000003093
 30
0.0
 11
461.6299183880391865
 21
276.7429000000002475
 31
0.0
  0
LINE
  5
AC
100
AcDbEntity
  8
0
 62
256
370
-1
 48
1.0
  6
BYLAYER
100
AcDbLine
 10
81.6299000000000063
 20
86.7428999999999917
 30
0.0
 11
76.7565999999999775
 21
83.2620000000000005
 31
0.0
  0
LINE
  5
AD
100
AcDbEntity
  8
0
 62
256
370
-1
 48
1.0
  6
BYLAYER
100
AcDbLine
 10
81.6299183880392007
 20
276.7428999999999633
 30
0.0
 11
76.7566183880391719
 21
273.2620000000000005
 31
0.0
  0
LINE
  5
AE
100
AcDbEntity
  8
0
 62
256
370
-1
 48
1.0
  6
BYLAYER
100
AcDbLine
 10
271.6299000000000206
 20
86.7429000000001338
 30
0.0
 11
266.7565999999999917
 21
83.2620000000001426
 31
0.0
  0
LINE
  5
AF
100
AcDbEntity
  8
0
 62
256
370
-1
 48
1.0
  6
BYLAYER
100
AcDbLine
 10
271.6299183880391865
 20
276.7429000000000769
 30
0.0
 11
266.7566183880391577
 21
273.262000000000171
 31
0.0
  0
LINE
  5
B0
100
AcDbEntity
  8
0
 62
256
370
-1
 48
1.0
  6
BYLAYER
100
AcDbLine
 10
461.6299000000000206
 20
86.7429000000002759
 30
0.0
 11
456.7565999999999917
 21
83.2620000000002847
 31
0.0
  0
LINE
  5
B1
100
AcDbEntity
  8
0
 62
256
370
-1
 48
1.0
  6
BYLAYER
100
AcDbLine
 10
461.6299183880391865
 20
276.7429000000002475
 30
0.0
 11
456.7566183880391577
 21
273.2620000000002847
 31
0.0
  0
LINE
  5
B2
100
AcDbEntity
  8
0
 62
256
370
-1
 48
1.0
  6
BYLAYER
100
AcDbLine
 10
76.7565999999999775
 20
83.2620000000000005
 30
0.0
 11
83.2620000000000005
 21
76.7565999999999917
 31
0.0
  0
LINE
  5
B3
100
AcDbEntity
  8
0
 62
256
370
-1
 48
1.0
  6
BYLAYER
100
AcDbLine
 10
76.7566183880391719
 20
273.2620000000000005
 30
0.0
 11
83.2620183880391949
 21
266.7565999999999917
 31
0.0
  0
LINE
  5
B4
100
AcDbEntity
  8
0
 62
256
370
-1
 48
1.0
  6
BYLAYER
100
AcDbLine
 10
266.7565999999999917
 20
83.2620000000001426
 30
0.0
 11
273.2620000000000005
 21
76.7566000000001338
 31
0.0
  0
LINE
  5
B5
100
AcDbEntity
  8
0
 62
256
370
-1
 48
1.0
  6
BYLAYER
100
AcDbLine
 10
266.7566183880391577
 20
273.262000000000171
 30
0.0
 11
273.2620183880392233
 21
266.7566000000001623
 31
0.0
  0
LINE
  5
B6
100
AcDbEntity
  8
0
 62
256
370
-1
 48
1.0
  6
BYLAYER
100
AcDbLine
 10
456.7565999999999917
 20
83.2620000000002847
 30
0.0
 11
463.2620000000000005
 21
76.7566000000002759
 31
0.0
  0
LINE
  5
B7
100
AcDbEntity
  8
0
 62
256
370
-1
 48
1.0
  6
BYLAYER
100
AcDbLine
 10
456.7566183880391577
 20
273.2620000000002847
 30
0.0
 11
463.2620183880392233
 21
266.7566000000002759
 31
0.0
  0
LINE
  5
B8
100
AcDbEntity
  8
0
 62
256
370
-1
 48
1.0
  6
BYLAYER
100
AcDbLine
 10
83.2620000000000147
 20
76.7566000000000059
 30
0.0
 11
86.7428999999999917
 21
81.6299000000000063
 31
0.0
  0
LINE
  5
B9
100
AcDbEntity
  8
0
 62
256
370
-1
 48
1.0
  6
BYLAYER
100
AcDbLine
 10
83.2620183880392091
 20
266.7565999999999917
 30
0.0
 11
86.7429183880391861
 21
271.6299000000000206
 31
0.0
  0
LINE
  5
BA
100
AcDbEntity
  8
0
 62
256
370
-1
 48
1.0
  6
BYLAYER
100
AcDbLine
 10
273.2620000000000005
 20
76.756600000000148
 30
0.0
 11
276.7428999999999633
 21
81.6299000000001485
 31
0.0
  0
LINE
  5
BB
100
AcDbEntity
  8
0
 62
256
370
-1
 48
1.0
  6
BYLAYER
100
AcDbLine
 10
273.2620183880392233
 20
266.7566000000001623
 30
0.0
 11
276.7429183880391861
 21
271.6299000000001342
 31
0.0
  0
LINE
  5
BC
100
AcDbEntity
  8
0
 62
256
370
-1
 48
1.0
  6
BYLAYER
100
AcDbLine
 10
463.2620000000000005
 20
76.7566000000002902
 30
0.0
 11
466.7428999999999633
 21
81.6299000000002906
 31
0.0
  0
LINE
  5
BD
100
AcDbEntity
  8
0
 62
256
370
-1
 48
1.0
  6
BYLAYER
100
AcDbLine
 10
463.2620183880392233
 20
266.7566000000002759
 30
0.0
 11
466.7429183880391861
 21
271.6299000000003048
 31
0.0
  0
LINE
  5
BE
100
AcDbEntity
  8
0
 62
256
370
-1
 48
1.0
  6
BYLAYER
100
AcDbLine
 10
86.7428999999999775
 20
81.6299000000000063
 30
0.0
 11
87.9993025530044406
 21
81.7338505692223265
 31
0.0
  0
LINE
  5
BF
100
AcDbEntity
  8
0
 62
256
370
-1
 48
1.0
  6
BYLAYER
100
AcDbLine
 10
86.7429183880391719
 20
271.6299000000000206
 30
0.0
 11
87.999320941043635
 21
271.7338505692223407
 31
0.0
  0
LINE
  5
C0
100
AcDbEntity
  8
0
 62
256
370
-1
 48
1.0
  6
BYLAYER
100
AcDbLine
 10
276.7428999999999633
 20
81.6299000000001485
 30
0.0
 11
277.9993025530044406
 21
81.7338505692224686
 31
0.0
  0
LINE
  5
C1
100
AcDbEntity
  8
0
 62
256
370
-1
 48
1.0
  6
BYLAYER
100
AcDbLine
 10
276.7429183880391861
 20
271.6299000000001342
 30
0.0
 11
277.9993209410436066
 21
271.7338505692224544
 31
0.0
  0
LINE
  5
C2
100
AcDbEntity
  8
0
 62
256
370
-1
 48
1.0
  6
BYLAYER
100
AcDbLine
 10
466.7428999999999633
 20
81.6299000000002906
 30
0.0
 11
467.9993025530044406
 21
81.7338505692226107
 31
0.0
  0
LINE
  5
C3
100
AcDbEntity
  8
0
 62
256
370
-1
 48
1.0
  6
BYLAYER
100
AcDbLine
 10
466.7429183880391861
 20
271.6299000000003048
 30
0.0
 11
467.9993209410436066
 21
271.7338505692226249
 31
0.0
  0
LINE
  5
C4
100
AcDbEntity
  8
0
 62
256
370
-1
 48
1.0
  6
BYLAYER
100
AcDbLine
 10
81.7339000000022793
 20
-87.9998999999956197
 30
0.0
 11
81.6298999999999921
 21
-86.7428999999999775
 31
0.0
  0
LINE
  5
C5
100
AcDbEntity
  8
0
 62
256
370
-1
 48
1.0
  6
BYLAYER
100
AcDbLine
 10
81.7339183880414737
 20
102.0001000000043803
 30
0.0
 11
81.6299183880391865
 21
103.2571000000000225
 31
0.0
  0
LINE
  5
C6
100
AcDbEntity
  8
0
 62
256
370
-1
 48
1.0
  6
BYLAYER
100
AcDbLine
 10
271.7339000000022793
 20
-87.9998999999954776
 30
0.0
 11
271.6299000000000206
 21
-86.7428999999998354
 31
0.0
  0
LINE
  5
C7
100
AcDbEntity
  8
0
 62
256
370
-1
 48
1.0
  6
BYLAYER
100
AcDbLine
 10
271.7339183880415021
 20
102.0001000000045224
 30
0.0
 11
271.6299183880391865
 21
103.2571000000001646
 31
0.0
  0
LINE
  5
C8
100
AcDbEntity
  8
0
 62
256
370
-1
 48
1.0
  6
BYLAYER
100
AcDbLine
 10
461.7339000000022793
 20
-87.9998999999953355
 30
0.0
 11
461.6299000000000206
 21
-86.7428999999996933
 31
0.0
  0
LINE
  5
C9
100
AcDbEntity
  8
0
 62
256
370
-1
 48
1.0
  6
BYLAYER
100
AcDbLine
 10
461.7339183880415021
 20
102.0001000000046645
 30
0.0
 11
461.6299183880391865
 21
103.2571000000003067
 31
0.0
  0
LINE
  5
CA
100
AcDbEntity
  8
0
 62
256
370
-1
 48
1.0
  6
BYLAYER
100
AcDbLine
 10
81.6298999999999921
 20
-86.7428999999999775
 30
0.0
 11
76.7566000000000059
 21
-83.2620000000000005
 31
0.0
  0
LINE
  5
CB
100
AcDbEntity
  8
0
 62
256
370
-1
 48
1.0
  6
BYLAYER
100
AcDbLine
 10
81.6299183880391865
 20
103.2571000000000225
 30
0.0
 11
76.7566183880392003
 21
106.7379999999999995
 31
0.0
  0
LINE
  5
CC
100
AcDbEntity
  8
0
 62
256
370
-1
 48
1.0
  6
BYLAYER
100
AcDbLine
 10
271.6299000000000206
 20
-86.7428999999998354
 30
0.0
 11
266.7565999999999917
 21
-83.2619999999998583
 31
0.0
  0
LINE
  5
CD
100
AcDbEntity
  8
0
 62
256
370
-1
 48
1.0
  6
BYLAYER
100
AcDbLine
 10
271.6299183880391865
 20
103.2571000000001646
 30
0.0
 11
266.7566183880392146
 21
106.7380000000001417
 31
0.0
  0
LINE
  5
CE
100
AcDbEntity
  8
0
 62
256
370
-1
 48
1.0
  6
BYLAYER
100
AcDbLine
 10
461.6299000000000206
 20
-86.7428999999996933
 30
0.0
 11
456.7565999999999917
 21
-83.2619999999997162
 31
0.0
  0
LINE
  5
CF
100
AcDbEntity
  8
0
 62
256
370
-1
 48
1.0
  6
BYLAYER
100
AcDbLine
 10
461.6299183880391865
 20
103.2571000000003067
 30
0.0
 11
456.7566183880392146
 21
106.7380000000002838
 31
0.0
  0
LINE
  5
D0
100
AcDbEntity
  8
0
 62
256
370
-1
 48
1.0
  6
BYLAYER
100
AcDbLine
 10
76.7566000000000059
 20
-83.2620000000000005
 30
0.0
 11
83.2620000000000005
 21
-76.7565999999999917
 31
0.0
  0
LINE
  5
D1
100
AcDbEntity
  8
0
 62
256
370
-1
 48
1.0
  6
BYLAYER
100
AcDbLine
 10
76.7566183880392003
 20
106.7379999999999995
 30
0.0
 11
83.2620183880391949
 21
113.2434000000000083
 31
0.0
  0
LINE
  5
D2
100
AcDbEntity
  8
0
 62
256
370
-1
 48
1.0
  6
BYLAYER
100
AcDbLine
 10
266.7565999999999917
 20
-83.2619999999998583
 30
0.0
 11
273.2620000000000005
 21
-76.7565999999998496
 31
0.0
  0
LINE
  5
D3
100
AcDbEntity
  8
0
 62
256
370
-1
 48
1.0
  6
BYLAYER
100
AcDbLine
 10
266.7566183880392146
 20
106.7380000000001417
 30
0.0
 11
273.2620183880392233
 21
113.2434000000001504
 31
0.0
  0
LINE
  5
D4
100
AcDbEntity
  8
0
 62
256
370
-1
 48
1.0
  6
BYLAYER
100
AcDbLine
 10
456.7565999999999917
 20
-83.2619999999997162
 30
0.0
 11
463.2620000000000005
 21
-76.7565999999997075
 31
0.0
  0
LINE
  5
D5
100
AcDbEntity
  8
0
 62
256
370
-1
 48
1.0
  6
BYLAYER
100
AcDbLine
 10
456.7566183880392146
 20
106.7380000000002838
 30
0.0
 11
463.2620183880392233
 21
113.2434000000002925
 31
0.0
  0
LINE
  5
D6
100
AcDbEntity
  8
0
 62
256
370
-1
 48
1.0
  6
BYLAYER
100
AcDbLine
 10
83.2620000000000005
 20
-76.7565999999999917
 30
0.0
 11
86.7429000000000059
 21
-81.6299000000000063
 31
0.0
  0
LINE
  5
D7
100
AcDbEntity
  8
0
 62
256
370
-1
 48
1.0
  6
BYLAYER
100
AcDbLine
 10
83.2620183880391949
 20
113.2434000000000083
 30
0.0
 11
86.7429183880392003
 21
108.3700999999999937
 31
0.0
  0
LINE
  5
D8
100
AcDbEntity
  8
0
 62
256
370
-1
 48
1.0
  6
BYLAYER
100
AcDbLine
 10
273.2620000000000005
 20
-76.7565999999998496
 30
0.0
 11
276.7429000000000201
 21
-81.6298999999998642
 31
0.0
  0
LINE
  5
D9
100
AcDbEntity
  8
0
 62
256
370
-1
 48
1.0
  6
BYLAYER
100
AcDbLine
 10
273.2620183880392233
 20
113.2434000000001504
 30
0.0
 11
276.7429183880391861
 21
108.3701000000001358
 31
0.0
  0
LINE
  5
DA
100
AcDbEntity
  8
0
 62
256
370
-1
 48
1.0
  6
BYLAYER
100
AcDbLine
 10
463.2620000000000005
 20
-76.7565999999997075
 30
0.0
 11
466.7429000000000201
 21
-81.6298999999997221
 31
0.0
  0
LINE
  5
DB
100
AcDbEntity
  8
0
 62
256
370
-1
 48
1.0
  6
BYLAYER
100
AcDbLine
 10
463.2620183880392233
 20
113.2434000000002925
 30
0.0
 11
466.7429183880391861
 21
108.3701000000002779
 31
0.0
  0
LINE
  5
DC
100
AcDbEntity
  8
0
 62
256
370
-1
 48
1.0
  6
BYLAYER
100
AcDbLine
 10
86.7429000000000059
 20
-81.6299000000000063
 30
0.0
 11
87.9992798993884975
 21
-81.7338486949374925
 31
0.0
  0
LINE
  5
DD
100
AcDbEntity
  8
0
 62
256
370
-1
 48
1.0
  6
BYLAYER
100
AcDbLine
 10
86.7429183880392003
 20
108.3700999999999937
 30
0.0
 11
87.9992982874276919
 21
108.2661513050625075
 31
0.0
  0
LINE
  5
DE
100
AcDbEntity
  8
0
 62
256
370
-1
 48
1.0
  6
BYLAYER
100
AcDbLine
 10
276.7429000000000201
 20
-81.6298999999998642
 30
0.0
 11
277.9992798993885117
 21
-81.7338486949373504
 31
0.0
  0
LINE
  5
DF
100
AcDbEntity
  8
0
 62
256
370
-1
 48
1.0
  6
BYLAYER
100
AcDbLine
 10
276.7429183880391861
 20
108.3701000000001358
 30
0.0
 11
277.9992982874276777
 21
108.2661513050626496
 31
0.0
  0
LINE
  5
E0
100
AcDbEntity
  8
0
 62
256
370
-1
 48
1.0
  6
BYLAYER
100
AcDbLine
 10
466.7429000000000201
 20
-81.6298999999997221
 30
0.0
 11
467.9992798993885117
 21
-81.7338486949372083
 31
0.0
  0
LINE
  5
E1
100
AcDbEntity
  8
0
 62
256
370
-1
 48
1.0
  6
BYLAYER
100
AcDbLine
 10
466.7429183880391861
 20
108.3701000000002779
 30
0.0
 11
467.9992982874276777
 21
108.2661513050627917
 31
0.0
  0
LINE
  5
E2
100
AcDbEntity
  8
0
 62
256
370
-1
 48
1.0
  6
BYLAYER
100
AcDbLine
 10
80.0
 20
-95.0
 30
0.0
 11
-80.0000183880393081
 21
-95.0
 31
0.0
  0
LINE
  5
E3
100
AcDbEntity
  8
0
 62
256
370
-1
 48
1.0
  6
BYLAYER
100
AcDbLine
 10
80.0000183880391944
 20
95.0
 30
0.0
 11
-80.0000000000001137
 21
95.0
 31
0.0
  0
LINE
  5
E4
100
AcDbEntity
  8
0
 62
256
370
-1
 48
1.0
  6
BYLAYER
100
AcDbLine
 10
270.0
 20
-94.9999999999998579
 30
0.0
 11
109.9999816119606919
 21
-94.9999999999998579
 31
0.0
  0
LINE
  5
E5
100
AcDbEntity
  8
0
 62
256
370
-1
 48
1.0
  6
BYLAYER
100
AcDbLine
 10
270.000018388039166
 20
95.0000000000001421
 30
0.0
 11
109.9999999999998863
 21
95.0000000000001421
 31
0.0
  0
LINE
  5
E6
100
AcDbEntity
  8
0
 62
256
370
-1
 48
1.0
  6
BYLAYER
100
AcDbLine
 10
460.0
 20
-94.9999999999997158
 30
0.0
 11
299.9999816119607203
 21
-94.9999999999997158
 31
0.0
  0
LINE
  5
E7
100
AcDbEntity
  8
0
 62
256
370
-1
 48
1.0
  6
BYLAYER
100
AcDbLine
 10
460.000018388039166
 20
95.0000000000002842
 30
0.0
 11
299.9999999999998863
 21
95.0000000000002842
 31
0.0
  0
LINE
  5
E8
100
AcDbEntity
  8
0
 62
256
370
-1
 48
1.0
  6
BYLAYER
100
AcDbLine
 10
-81.6349000000048051
 20
-88.1900999999907782
 30
0.0
 11
-81.6299000000000063
 21
-86.7428999999999917
 31
0.0
  0
LINE
  5
E9
100
AcDbEntity
  8
0
 62
256
370
-1
 48
1.0
  6
BYLAYER
100
AcDbLine
 10
-81.6348816119656107
 20
101.8099000000092218
 30
0.0
 11
-81.6298816119608119
 21
103.2571000000000083
 31
0.0
  0
LINE
  5
EA
100
AcDbEntity
  8
0
 62
256
370
-1
 48
1.0
  6
BYLAYER
100
AcDbLine
 10
108.3650999999951949
 20
-88.1900999999906361
 30
0.0
 11
108.3700999999999937
 21
-86.7428999999998496
 31
0.0
  0
LINE
  5
EB
100
AcDbEntity
  8
0
 62
256
370
-1
 48
1.0
  6
BYLAYER
100
AcDbLine
 10
108.3651183880343893
 20
101.8099000000093639
 30
0.0
 11
108.3701183880391881
 21
103.2571000000001504
 31
0.0
  0
LINE
  5
EC
100
AcDbEntity
  8
0
 62
256
370
-1
 48
1.0
  6
BYLAYER
100
AcDbLine
 10
298.3650999999952091
 20
-88.190099999990494
 30
0.0
 11
298.3700999999999794
 21
-86.7428999999997075
 31
0.0
  0
LINE
  5
ED
100
AcDbEntity
  8
0
 62
256
370
-1
 48
1.0
  6
BYLAYER
100
AcDbLine
 10
298.3651183880343751
 20
101.809900000009506
 30
0.0
 11
298.3701183880392023
 21
103.2571000000002925
 31
0.0
  0
LINE
  5
EE
100
AcDbEntity
  8
0
 62
256
370
-1
 48
1.0
  6
BYLAYER
100
AcDbLine
 10
-81.6299000000000063
 20
-86.7428999999999917
 30
0.0
 11
-76.7565999999999775
 21
-83.2620000000000005
 31
0.0
  0
LINE
  5
EF
100
AcDbEntity
  8
0
 62
256
370
-1
 48
1.0
  6
BYLAYER
100
AcDbLine
 10
-81.6298816119608119
 20
103.2571000000000083
 30
0.0
 11
-76.7565816119607831
 21
106.7379999999999995
 31
0.0
  0
LINE
  5
F0
100
AcDbEntity
  8
0
 62
256
370
-1
 48
1.0
  6
BYLAYER
100
AcDbLine
 10
108.3700999999999937
 20
-86.7428999999998496
 30
0.0
 11
113.2434000000000225
 21
-83.2619999999998583
 31
0.0
  0
LINE
  5
F1
100
AcDbEntity
  8
0
 62
256
370
-1
 48
1.0
  6
BYLAYER
100
AcDbLine
 10
108.3701183880391881
 20
103.2571000000001504
 30
0.0
 11
113.2434183880392169
 21
106.7380000000001417
 31
0.0
  0
LINE
  5
F2
100
AcDbEntity
  8
0
 62
256
370
-1
 48
1.0
  6
BYLAYER
100
AcDbLine
 10
298.3700999999999794
 20
-86.7428999999997075
 30
0.0
 11
303.2434000000000083
 21
-83.2619999999997162
 31
0.0
  0
LINE
  5
F3
100
AcDbEntity
  8
0
 62
256
370
-1
 48
1.0
  6
BYLAYER
100
AcDbLine
 10
298.3701183880392023
 20
103.2571000000002925
 30
0.0
 11
303.2434183880392311
 21
106.7380000000002838
 31
0.0
  0
LINE
  5
F4
100
AcDbEntity
  8
0
 62
256
370
-1
 48
1.0
  6
BYLAYER
100
AcDbLine
 10
-76.7565999999999775
 20
-83.2620000000000005
 30
0.0
 11
-83.2620000000000147
 21
-76.7565999999999775
 31
0.0
  0
LINE
  5
F5
100
AcDbEntity
  8
0
 62
256
370
-1
 48
1.0
  6
BYLAYER
100
AcDbLine
 10
-76.7565816119607831
 20
106.7379999999999995
 30
0.0
 11
-83.2619816119608203
 21
113.2434000000000225
 31
0.0
  0
LINE
  5
F6
100
AcDbEntity
  8
0
 62
256
370
-1
 48
1.0
  6
BYLAYER
100
AcDbLine
 10
113.2434000000000225
 20
-83.2619999999998583
 30
0.0
 11
106.7379999999999853
 21
-76.7565999999998354
 31
0.0
  0
LINE
  5
F7
100
AcDbEntity
  8
0
 62
256
370
-1
 48
1.0
  6
BYLAYER
100
AcDbLine
 10
113.2434183880392169
 20
106.7380000000001417
 30
0.0
 11
106.7380183880391797
 21
113.2434000000001646
 31
0.0
  0
LINE
  5
F8
100
AcDbEntity
  8
0
 62
256
370
-1
 48
1.0
  6
BYLAYER
100
AcDbLine
 10
303.2434000000000083
 20
-83.2619999999997162
 30
0.0
 11
296.7379999999999995
 21
-76.7565999999996933
 31
0.0
  0
LINE
  5
F9
100
AcDbEntity
  8
0
 62
256
370
-1
 48
1.0
  6
BYLAYER
100
AcDbLine
 10
303.2434183880392311
 20
106.7380000000002838
 30
0.0
 11
296.7380183880391655
 21
113.2434000000003067
 31
0.0
  0
LINE
  5
FA
100
AcDbEntity
  8
0
 62
256
370
-1
 48
1.0
  6
BYLAYER
100
AcDbLine
 10
-83.2620000000000005
 20
-76.7565999999999633
 30
0.0
 11
-86.7428999999999917
 21
-81.6299000000000063
 31
0.0
  0
LINE
  5
FB
100
AcDbEntity
  8
0
 62
256
370
-1
 48
1.0
  6
BYLAYER
100
AcDbLine
 10
-83.261981611960806
 20
113.2434000000000367
 30
0.0
 11
-86.7428816119607973
 21
108.3700999999999937
 31
0.0
  0
LINE
  5
FC
100
AcDbEntity
  8
0
 62
256
370
-1
 48
1.0
  6
BYLAYER
100
AcDbLine
 10
106.7379999999999995
 20
-76.7565999999998212
 30
0.0
 11
103.2571000000000083
 21
-81.6298999999998642
 31
0.0
  0
LINE
  5
FD
100
AcDbEntity
  8
0
 62
256
370
-1
 48
1.0
  6
BYLAYER
100
AcDbLine
 10
106.738018388039194
 20
113.2434000000001788
 30
0.0
 11
103.2571183880392027
 21
108.3701000000001358
 31
0.0
  0
LINE
  5
FE
100
AcDbEntity
  8
0
 62
256
370
-1
 48
1.0
  6
BYLAYER
100
AcDbLine
 10
296.7379999999999995
 20
-76.7565999999996791
 30
0.0
 11
293.2571000000000367
 21
-81.6298999999997221
 31
0.0
  0
LINE
  5
FF
100
AcDbEntity
  8
0
 62
256
370
-1
 48
1.0
  6
BYLAYER
100
AcDbLine
 10
296.7380183880392224
 20
113.2434000000003209
 30
0.0
 11
293.2571183880392027
 21
108.3701000000002779
 31
0.0
  0
LINE
  5
100
100
AcDbEntity
  8
0
 62
256
370
-1
 48
1.0
  6
BYLAYER
100
AcDbLine
 10
-86.7428999999999917
 20
-81.6299000000000063
 30
0.0
 11
-87.9998999999956339
 21
-81.7339000000022793
 31
0.0
  0
LINE
  5
101
100
AcDbEntity
  8
0
 62
256
370
-1
 48
1.0
  6
BYLAYER
100
AcDbLine
 10
-86.7428816119607973
 20
108.3700999999999937
 30
0.0
 11
-87.9998816119564395
 21
108.2660999999977207
 31
0.0
  0
LINE
  5
102
100
AcDbEntity
  8
0
 62
256
370
-1
 48
1.0
  6
BYLAYER
100
AcDbLine
 10
103.2571000000000083
 20
-81.6298999999998642
 30
0.0
 11
102.0001000000043661
 21
-81.7339000000021372
 31
0.0
  0
LINE
  5
103
100
AcDbEntity
  8
0
 62
256
370
-1
 48
1.0
  6
BYLAYER
100
AcDbLine
 10
103.2571183880392027
 20
108.3701000000001358
 30
0.0
 11
102.0001183880435605
 21
108.2660999999978628
 31
0.0
  0
LINE
  5
104
100
AcDbEntity
  8
0
 62
256
370
-1
 48
1.0
  6
BYLAYER
100
AcDbLine
 10
293.2571000000000367
 20
-81.6298999999997221
 30
0.0
 11
292.0001000000043518
 21
-81.7339000000019951
 31
0.0
  0
LINE
  5
105
100
AcDbEntity
  8
0
 62
256
370
-1
 48
1.0
  6
BYLAYER
100
AcDbLine
 10
293.2571183880392027
 20
108.3701000000002779
 30
0.0
 11
292.0001183880435747
 21
108.2660999999980049
 31
0.0
  0
ARC
  5
106
100
AcDbEntity
  8
0
 62
256
370
-1
 48
1.0
  6
BYLAYER
100
AcDbCircle
 10
95.0004017959977176
 20
-95.0018681268358591
 30
0.0
 40
15.0018681322165222
100
AcDbArc
 50
90.0015345565428362
 51
117.8192193021725558
  0
ARC
  5
107
100
AcDbEntity
  8
0
 62
256
370
-1
 48
1.0
  6
BYLAYER
100
AcDbCircle
 10
95.000420184036912
 20
94.9981318731641409
 30
0.0
 40
15.0018681322165222
100
AcDbArc
 50
90.0015345565428362
 51
117.8192193021725558
  0
ARC
  5
108
100
AcDbEntity
  8
0
 62
256
370
-1
 48
1.0
  6
BYLAYER
100
AcDbCircle
 10
285.0004017959977318
 20
-95.001868126835717
 30
0.0
 40
15.0018681322165222
100
AcDbArc
 50
90.0015345565428362
 51
117.8192193021725558
  0
ARC
  5
109
100
AcDbEntity
  8
0
 62
256
370
-1
 48
1.0
  6
BYLAYER
100
AcDbCircle
 10
285.0004201840368978
 20
94.998131873164283
 30
0.0
 40
15.0018681322165222
100
AcDbArc
 50
90.0015345565428362
 51
117.8192193021725558
  0
ARC
  5
10A
100
AcDbEntity
  8
0
 62
256
370
-1
 48
1.0
  6
BYLAYER
100
AcDbCircle
 10
475.0004017959977318
 20
-95.0018681268355749
 30
0.0
 40
15.0018681322165222
100
AcDbArc
 50
90.0015345565428362
 51
117.8192193021725558
  0
ARC
  5
10B
100
AcDbEntity
  8
0
 62
256
370
-1
 48
1.0
  6
BYLAYER
100
AcDbCircle
 10
475.0004201840368978
 20
94.9981318731644251
 30
0.0
 40
15.0018681322165222
100
AcDbArc
 50
90.0015345565428362
 51
117.8192193021725558
  0
LINE
  5
10C
100
AcDbEntity
  8
0
 62
256
370
-1
 48
1.0
  6
BYLAYER
100
AcDbLine
 10
95.0
 20
80.0
 30
0.0
 11
95.0
 21
-80.0
 31
0.0
  0
LINE
  5
10D
100
AcDbEntity
  8
0
 62
256
370
-1
 48
1.0
  6
BYLAYER
100
AcDbLine
 10
95.0000183880391944
 20
270.0
 30
0.0
 11
95.0000183880391944
 21
110.0
 31
0.0
  0
LINE
  5
10E
100
AcDbEntity
  8
0
 62
256
370
-1
 48
1.0
  6
BYLAYER
100
AcDbLine
 10
285.0
 20
80.0000000000001421
 30
0.0
 11
285.0
 21
-79.9999999999998579
 31
0.0
  0
LINE
  5
10F
100
AcDbEntity
  8
0
 62
256
370
-1
 48
1.0
  6
BYLAYER
100
AcDbLine
 10
285.000018388039166
 20
270.0000000000001137
 30
0.0
 11
285.000018388039166
 21
110.0000000000001421
 31
0.0
  0
LINE
  5
110
100
AcDbEntity
  8
0
 62
256
370
-1
 48
1.0
  6
BYLAYER
100
AcDbLine
 10
475.0
 20
80.0000000000002842
 30
0.0
 11
475.0
 21
-79.9999999999997158
 31
0.0
  0
LINE
  5
111
100
AcDbEntity
  8
0
 62
256
370
-1
 48
1.0
  6
BYLAYER
100
AcDbLine
 10
475.000018388039166
 20
270.0000000000002842
 30
0.0
 11
475.000018388039166
 21
110.0000000000002842
 31
0.0
  0
ENDSEC
  0
SECTION
  2
OBJECTS
  0
DICTIONARY
  5
C
100
AcDbDictionary
280
0
281
1
  3
ACAD_GROUP
350
D
  3
ACAD_LAYOUT
350
1A
  3
ACAD_MLINESTYLE
350
17
  3
ACAD_PLOTSETTINGS
350
19
  3
ACAD_PLOTSTYLENAME
350
E
  3
AcDbVariableDictionary
350
112
  3
QCAD_OBJECTS
350
113
  0
DICTIONARY
  5
D
100
AcDbDictionary
280
0
281
1
  0
ACDBDICTIONARYWDFLT
  5
E
100
AcDbDictionary
281
1
  3
Normal
350
F
100
AcDbDictionaryWithDefault
340
F
  0
ACDBPLACEHOLDER
  5
F
  0
DICTIONARY
  5
17
100
AcDbDictionary
280
0
281
1
  3
Standard
350
18
  0
MLINESTYLE
  5
18
100
AcDbMlineStyle
  2
STANDARD
 70
0
  3

 62
256
 51
90.0
 52
90.0
 71
2
 49
0.5
 62
256
  6
BYLAYER
 49
-0.5
 62
256
  6
BYLAYER
  0
DICTIONARY
  5
19
100
AcDbDictionary
280
0
281
1
  0
DICTIONARY
  5
1A
100
AcDbDictionary
281
1
  3
Layout1
350
1E
  3
Layout2
350
26
  3
Model
350
22
  0
LAYOUT
  5
1E
100
AcDbPlotSettings
  1

  2
none_device
  4

  6

 40
0.0
 41
0.0
 42
0.0
 43
0.0
 44
0.0
 45
0.0
 46
0.0
 47
0.0
 48
0.0
 49
0.0
140
0.0
141
0.0
142
1.0
143
1.0
 70
688
 72
0
 73
0
 74
5
  7

 75
16
147
1.0
148
0.0
149
0.0
100
AcDbLayout
  1
Layout1
 70
1
 71
1
 10
0.0
 20
0.0
 11
420.0
 21
297.0
 12
0.0
 22
0.0
 32
0.0
 14
100000000000000000000.0
 24
100000000000000000000.0
 34
100000000000000000000.0
 15
-100000000000000000000.0
 25
-100000000000000000000.0
 35
-100000000000000000000.0
146
0.0
 13
0.0
 23
0.0
 33
0.0
 16
1.0
 26
0.0
 36
0.0
 17
0.0
 27
1.0
 37
0.0
 76
0
330
1B
  0
LAYOUT
  5
22
100
AcDbPlotSettings
  1

  2
none_device
  4

  6

 40
0.0
 41
0.0
 42
0.0
 43
0.0
 44
0.0
 45
0.0
 46
0.0
 47
0.0
 48
0.0
 49
0.0
140
0.0
141
0.0
142
1.0
143
1.0
 70
1712
 72
0
 73
0
 74
0
  7

 75
0
147
1.0
148
0.0
149
0.0
100
AcDbLayout
  1
Model
 70
1
 71
0
 10
0.0
 20
0.0
 11
12.0
 21
9.0
 12
0.0
 22
0.0
 32
0.0
 14
0.0
 24
0.0
 34
0.0
 15
0.0
 25
0.0
 35
0.0
146
0.0
 13
0.0
 23
0.0
 33
0.0
 16
1.0
 26
0.0
 36
0.0
 17
0.0
 27
1.0
 37
0.0
 76
0
330
1F
  0
LAYOUT
  5
26
100
AcDbPlotSettings
  1

  2
none_device
  4

  6

 40
0.0
 41
0.0
 42
0.0
 43
0.0
 44
0.0
 45
0.0
 46
0.0
 47
0.0
 48
0.0
 49
0.0
140
0.0
141
0.0
142
1.0
143
1.0
 70
688
 72
0
 73
0
 74
5
  7

 75
16
147
1.0
148
0.0
149
0.0
100
AcDbLayout
  1
Layout2
 70
1
 71
2
 10
0.0
 20
0.0
 11
12.0
 21
9.0
 12
0.0
 22
0.0
 32
0.0
 14
0.0
 24
0.0
 34
0.0
 15
0.0
 25
0.0
 35
0.0
146
0.0
 13
0.0
 23
0.0
 33
0.0
 16
1.0
 26
0.0
 36
0.0
 17
0.0
 27
1.0
 37
0.0
 76
0
330
23
  0
DICTIONARY
  5
112
100
AcDbDictionary
281
1
  3
DIMASSOC
350
115
  3
HIDETEXT
350
114
  0
DICTIONARYVAR
  5
114
100
DictionaryVariables
280
0
  1
2
  0
DICTIONARYVAR
  5
115
100
DictionaryVariables
280
0
  1
1
  0
DICTIONARY
  5
113
100
AcDbDictionary
281
1
  3
ColorSettings/BackgroundColor
350
116
  3
ColorSettings/ColorMode
350
117
  3
Grid/DisplayGrid00
350
118
  3
Grid/DisplayGrid01
350
119
  3
Grid/DisplayGrid02
350
11A
  3
Grid/DisplayGrid03
350
11B
  3
Grid/GridSpacingX00
350
11C
  3
Grid/GridSpacingX01
350
11D
  3
Grid/GridSpacingX02
350
11E
  3
Grid/GridSpacingX03
350
11F
  3
Grid/GridSpacingY00
350
120
  3
Grid/GridSpacingY01
350
121
  3
Grid/GridSpacingY02
350
122
  3
Grid/GridSpacingY03
350
123
  3
Grid/IsometricGrid00
350
124
  3
Grid/IsometricGrid01
350
125
  3
Grid/IsometricGrid02
350
126
  3
Grid/IsometricGrid03
350
127
  3
Grid/IsometricProjection00
350
128
  3
Grid/IsometricProjection01
350
129
  3
Grid/IsometricProjection02
350
12A
  3
Grid/IsometricProjection03
350
12B
  3
Grid/MetaGridSpacingX00
350
12C
  3
Grid/MetaGridSpacingX01
350
12D
  3
Grid/MetaGridSpacingX02
350
12E
  3
Grid/MetaGridSpacingX03
350
12F
  3
Grid/MetaGridSpacingY00
350
130
  3
Grid/MetaGridSpacingY01
350
131
  3
Grid/MetaGridSpacingY02
350
132
  3
Grid/MetaGridSpacingY03
350
133
  3
MultiPageSettings/Columns
350
134
  3
MultiPageSettings/GlueMarginsBottom
350
135
  3
MultiPageSettings/GlueMarginsLeft
350
136
  3
MultiPageSettings/GlueMarginsRight
350
137
  3
MultiPageSettings/GlueMarginsTop
350
138
  3
MultiPageSettings/PrintCropMarks
350
139
  3
MultiPageSettings/Rows
350
13A
  3
PageSettings/OffsetX
350
13B
  3
PageSettings/OffsetY
350
13C
  3
PageSettings/PageOrientation
350
13D
  3
PageSettings/PaperHeight
350
13E
  3
PageSettings/PaperWidth
350
13F
  3
PageSettings/Scale
350
140
  3
PageSettings/ShowPaperBorders
350
141
  3
PageTagSettings/EnablePageTags
350
142
  3
PageTagSettings/TagAlignment
350
143
  3
PageTagSettings/TagFont
350
144
  3
PageTagSettings/TagPosition
350
145
  3
QCADVersion
350
146
  3
UnitSettings/PaperUnit
350
147
  3
ViewportCenter
350
148
  3
ViewportHeight
350
149
  3
ViewportWidth
350
14A
  0
XRECORD
  5
116
330
113
100
AcDbXrecord
280
1
1000
Blanc
  0
XRECORD
  5
117
330
113
100
AcDbXrecord
280
1
1000
FullColor
  0
XRECORD
  5
118
330
113
100
AcDbXrecord
280
1
290
1
  0
XRECORD
  5
119
330
113
100
AcDbXrecord
280
1
290
1
  0
XRECORD
  5
11A
330
113
100
AcDbXrecord
280
1
290
1
  0
XRECORD
  5
11B
330
113
100
AcDbXrecord
280
1
290
1
  0
XRECORD
  5
11C
330
113
100
AcDbXrecord
280
1
1000
auto
  0
XRECORD
  5
11D
330
113
100
AcDbXrecord
280
1
1000
auto
  0
XRECORD
  5
11E
330
113
100
AcDbXrecord
280
1
1000
auto
  0
XRECORD
  5
11F
330
113
100
AcDbXrecord
280
1
1000
auto
  0
XRECORD
  5
120
330
113
100
AcDbXrecord
280
1
1000
auto
  0
XRECORD
  5
121
330
113
100
AcDbXrecord
280
1
1000
auto
  0
XRECORD
  5
122
330
113
100
AcDbXrecord
280
1
1000
auto
  0
XRECORD
  5
123
330
113
100
AcDbXrecord
280
1
1000
auto
  0
XRECORD
  5
124
330
113
100
AcDbXrecord
280
1
290
0
  0
XRECORD
  5
125
330
113
100
AcDbXrecord
280
1
290
0
  0
XRECORD
  5
126
330
113
100
AcDbXrecord
280
1
290
0
  0
XRECORD
  5
127
330
113
100
AcDbXrecord
280
1
290
0
  0
XRECORD
  5
128
330
113
100
AcDbXrecord
280
1
 90
65537
  0
XRECORD
  5
129
330
113
100
AcDbXrecord
280
1
 90
65537
  0
XRECORD
  5
12A
330
113
100
AcDbXrecord
280
1
 90
65537
  0
XRECORD
  5
12B
330
113
100
AcDbXrecord
280
1
 90
65537
  0
XRECORD
  5
12C
330
113
100
AcDbXrecord
280
1
1000
auto
  0
XRECORD
  5
12D
330
113
100
AcDbXrecord
280
1
1000
auto
  0
XRECORD
  5
12E
330
113
100
AcDbXrecord
280
1
1000
auto
  0
XRECORD
  5
12F
330
113
100
AcDbXrecord
280
1
1000
auto
  0
XRECORD
  5
130
330
113
100
AcDbXrecord
280
1
1000
auto
  0
XRECORD
  5
131
330
113
100
AcDbXrecord
280
1
1000
auto
  0
XRECORD
  5
132
330
113
100
AcDbXrecord
280
1
1000
auto
  0
XRECORD
  5
133
330
113
100
AcDbXrecord
280
1
1000
auto
  0
XRECORD
  5
134
330
113
100
AcDbXrecord
280
1
 90
1
  0
XRECORD
  5
135
330
113
100
AcDbXrecord
280
1
 40
10.0
  0
XRECORD
  5
136
330
113
100
AcDbXrecord
280
1
 40
10.0
  0
XRECORD
  5
137
330
113
100
AcDbXrecord
280
1
 40
10.0
  0
XRECORD
  5
138
330
113
100
AcDbXrecord
280
1
 40
10.0
  0
XRECORD
  5
139
330
113
100
AcDbXrecord
280
1
290
0
  0
XRECORD
  5
13A
330
113
100
AcDbXrecord
280
1
 90
1
  0
XRECORD
  5
13B
330
113
100
AcDbXrecord
280
1
 40
0.0
  0
XRECORD
  5
13C
330
113
100
AcDbXrecord
280
1
 40
0.0
  0
XRECORD
  5
13D
330
113
100
AcDbXrecord
280
1
1000
Portrait
  0
XRECORD
  5
13E
330
113
100
AcDbXrecord
280
1
 40
297.0
  0
XRECORD
  5
13F
330
113
100
AcDbXrecord
280
1
 40
210.0
  0
XRECORD
  5
140
330
113
100
AcDbXrecord
280
1
1000
1:1
  0
XRECORD
  5
141
330
113
100
AcDbXrecord
280
1
290
1
  0
XRECORD
  5
142
330
113
100
AcDbXrecord
280
1
290
0
  0
XRECORD
  5
143
330
113
100
AcDbXrecord
280
1
1000
Inside
  0
XRECORD
  5
144
330
113
100
AcDbXrecord
280
1
1000
Arial,10,-1,5,50,0,0,0,0,0
  0
XRECORD
  5
145
330
113
100
AcDbXrecord
280
1
1000
TopLeft
  0
XRECORD
  5
146
330
113
100
AcDbXrecord
280
1
1000
3.27.1
  0
XRECORD
  5
147
330
113
100
AcDbXrecord
280
1
 90
4
  0
XRECORD
  5
149
330
113
100
AcDbXrecord
280
1
 40
491.3460829493212714
  0
XRECORD
  5
14A
330
113
100
AcDbXrecord
280
1
 40
1041.5695852534827281
  0
ENDSEC
  0
EOF
